<svg xmlns="http://www.w3.org/2000/svg" width="900" height="285" viewBox="0 0 900 285" role="img" aria-labelledby="title description">
  <title id="title">Mastergamerrrr GitHub statistics</title>
  <desc id="description">Public commits, repositories, stars, followers, and most-used languages. Updated 2026-08-28.</desc>
  <defs>
    <linearGradient id="background" x1="0" y1="0" x2="1" y2="1">
      <stop offset="0" stop-color="#0d1117" />
      <stop offset="1" stop-color="#101b2d" />
    </linearGradient>
    <clipPath id="bar-clip"><rect x="42" y="191" width="816" height="9" rx="4.5" /></clipPath>
  </defs>
  <style>
    .eyebrow { fill: #58a6ff; font: 600 12px ui-monospace, SFMono-Regular, Consolas, monospace; letter-spacing: 1.4px; }
    .updated { fill: #7d8590; font: 11px ui-monospace, SFMono-Regular, Consolas, monospace; }
    .value { fill: #f0f6fc; font: 700 30px ui-sans-serif, system-ui, sans-serif; }
    .label { fill: #8b949e; font: 600 10px ui-monospace, SFMono-Regular, Consolas, monospace; letter-spacing: .8px; }
    .section { fill: #c9d1d9; font: 600 12px ui-monospace, SFMono-Regular, Consolas, monospace; letter-spacing: 1px; }
    .legend { fill: #c9d1d9; font: 600 11px ui-sans-serif, system-ui, sans-serif; }
    .percent { fill: #7d8590; font: 10px ui-monospace, SFMono-Regular, Consolas, monospace; }
  </style>
  <rect x="1" y="1" width="898" height="283" rx="14" fill="url(#background)" stroke="#30363d" />
  <circle cx="855" cy="35" r="48" fill="#1f6feb" opacity=".08" />
  <text class="eyebrow" x="42" y="45">GITHUB / BUILD SIGNAL</text>
  <text class="updated" x="858" y="45" text-anchor="end">UPDATED 2026-08-28</text>
  
      <g transform="translate(42 88)">
        <text class="value">50</text>
        <text class="label" y="27">PUBLIC COMMITS</text>
      </g>
      <g transform="translate(247 88)">
        <text class="value">7</text>
        <text class="label" y="27">PROJECT REPOS</text>
      </g>
      <g transform="translate(452 88)">
        <text class="value">8</text>
        <text class="label" y="27">CODE LANGUAGES</text>
      </g>
      <g transform="translate(657 88)">
        <text class="value">2</text>
        <text class="label" y="27">GODOT BUILDS</text>
      </g>
  <line x1="42" y1="153" x2="858" y2="153" stroke="#30363d" />
  <text class="section" x="42" y="177">LANGUAGE FOOTPRINT</text>
  <g clip-path="url(#bar-clip)"><rect x="42.0" y="191" width="462.3" height="9" fill="#f1e05a" /><rect x="504.3" y="191" width="210.5" height="9" fill="#b07219" /><rect x="714.7" y="191" width="64.8" height="9" fill="#512bd4" /><rect x="779.5" y="191" width="41.6" height="9" fill="#8b5cf6" /><rect x="821.1" y="191" width="29.9" height="9" fill="#478cbf" /></g>
  
      <g transform="translate(42 229)">
        <circle cx="5" cy="-4" r="5" fill="#f1e05a" />
        <text class="legend" x="17">JavaScript</text>
        <text class="percent" x="17" y="19">56.7%</text>
      </g>
      <g transform="translate(204 229)">
        <circle cx="5" cy="-4" r="5" fill="#b07219" />
        <text class="legend" x="17">Java</text>
        <text class="percent" x="17" y="19">25.8%</text>
      </g>
      <g transform="translate(366 229)">
        <circle cx="5" cy="-4" r="5" fill="#512bd4" />
        <text class="legend" x="17">ASP.NET</text>
        <text class="percent" x="17" y="19">7.9%</text>
      </g>
      <g transform="translate(528 229)">
        <circle cx="5" cy="-4" r="5" fill="#8b5cf6" />
        <text class="legend" x="17">C#</text>
        <text class="percent" x="17" y="19">5.1%</text>
      </g>
      <g transform="translate(690 229)">
        <circle cx="5" cy="-4" r="5" fill="#478cbf" />
        <text class="legend" x="17">GDScript</text>
        <text class="percent" x="17" y="19">3.7%</text>
      </g>
</svg>
